<svg height="402pt" viewBox="-4 0 402 402.77333" width="402pt" xmlns="http://www.w3.org/2000/svg"><path d="m121.609375 235.117188c-7.035156 43.097656-23.179687 84.191406-47.359375 120.554687l-22.238281 33.449219 34.789062-22.980469c36.378907-24.03125 77.457031-40.039063 120.503907-46.964844l53.105468-8.539062 39.828125-83.132813-86.609375-86.609375-83.132812 39.824219zm104.394531-19.988282c10.25 10.25 10.25 26.871094 0 37.121094s-26.867187 10.25-37.121094 0c-10.25-10.25-10.25-26.871094 0-37.121094s26.871094-10.25 37.121094 0zm0 0" fill="#d7e9ff"/><path d="m52.011719 395.945312c-1.765625 0-3.515625-.679687-4.835938-2.003906-2.292969-2.300781-2.648437-5.894531-.847656-8.601562l22.242187-33.449219c23.796876-35.785156 39.371094-75.445313 46.304688-117.871094l8.886719-54.398437c.359375-2.207032 1.769531-4.09375 3.785156-5.054688l83.132813-39.828125c2.613281-1.257812 5.730468-.726562 7.777343 1.328125l86.609375 86.605469c2.050782 2.046875 2.582032 5.167969 1.332032 7.773437l-39.832032 83.132813c-.964844 2.023437-2.863281 3.441406-5.074218 3.796875l-53.105469 8.546875c-42.375 6.8125-82.015625 22.257813-117.820313 45.910156l-34.792968 22.980469c-1.148438.761719-2.460938 1.132812-3.761719 1.132812zm76.335937-159.726562c-7.242187 44.355469-23.53125 85.8125-48.410156 123.234375l-3.601562 5.421875 6.707031-4.429688c37.433593-24.730468 78.875-40.886718 123.179687-48.003906l49.578125-7.980468 36.195313-75.554688-79.773438-79.765625-75.558594 36.199219zm79.097656 30.542969c-8.835937 0-17.140624-3.441407-23.386718-9.6875-6.246094-6.246094-9.6875-14.546875-9.6875-23.386719 0-8.835938 3.441406-17.140625 9.6875-23.386719 12.894531-12.894531 33.875-12.894531 46.769531 0 6.246094 6.246094 9.6875 14.550781 9.6875 23.386719 0 8.839844-3.441406 17.140625-9.6875 23.386719-6.246094 6.246093-14.550781 9.6875-23.382813 9.6875zm0-52.480469c-4.972656 0-9.945312 1.886719-13.734374 5.671875-3.664063 3.667969-5.6875 8.546875-5.6875 13.734375s2.023437 10.066406 5.6875 13.734375c7.332031 7.324219 20.117187 7.332031 27.464843 0 3.664063-3.667969 5.6875-8.546875 5.6875-13.734375s-2.023437-10.0625-5.6875-13.734375c-3.789062-3.78125-8.761719-5.671875-13.730469-5.671875zm0 0" fill="#0e65e5"/><path d="m213.628906 140.894531 86.609375-86.609375 86.609375 86.609375-86.609375 86.609375zm0 0" fill="#3090e3"/><path d="m300.242188 234.328125c-1.746094 0-3.496094-.667969-4.828126-2l-86.609374-86.609375c-1.28125-1.277344-2-3.011719-2-4.824219s.71875-3.546875 2-4.828125l86.609374-86.613281c2.5625-2.558594 7.09375-2.558594 9.652344 0l86.609375 86.613281c1.28125 1.28125 2.003907 3.015625 2.003907 4.828125s-.722657 3.546875-2.003907 4.824219l-86.609375 86.609375c-1.332031 1.332031-3.078125 2-4.824218 2zm-76.957032-93.433594 76.957032 76.953125 76.957031-76.953125-76.957031-76.960937zm0 0" fill="#0e65e5"/><path d="m58.96875 388.992188c-1.746094 0-3.496094-.664063-4.828125-2-2.664063-2.664063-2.664063-6.984376 0-9.652344l98.984375-98.984375c2.664062-2.667969 6.988281-2.667969 9.652344 0 2.667968 2.664062 2.667968 6.984375 0 9.652343l-98.984375 98.984376c-1.332031 1.335937-3.078125 2-4.824219 2zm0 0" fill="#0e65e5"/><path d="m280.929688 208.195312-47.992188-47.992187c-10.664062-10.664063-10.664062-27.957031 0-38.617187l10.875-10.875c10.664062-10.664063 27.953125-10.664063 38.617188 0l47.992187 47.992187c10.664063 10.664063 10.664063 27.953125 0 38.617187l-10.875 10.875c-10.664063 10.664063-27.953125 10.664063-38.617187 0zm0 0" fill="#94c1ff"/><path d="m300.242188 223.019531c-9.121094 0-17.691407-3.550781-24.136719-10l-47.996094-47.992187c-6.445313-6.445313-9.996094-15.011719-9.996094-24.132813 0-9.121093 3.550781-17.6875 9.996094-24.132812l10.871094-10.882813c13.3125-13.300781 34.96875-13.304687 48.277343 0l47.992188 47.996094c13.308594 13.304688 13.308594 34.964844 0 48.269531l-10.875 10.875c-6.449219 6.449219-15.019531 10-24.132812 10zm-37.121094-113.472656c-5.242188 0-10.488282 2-14.484375 5.988281l-10.867188 10.878906c-3.871093 3.867188-6 9.007813-6 14.480469 0 5.472657 2.128907 10.613281 5.996094 14.480469l47.992187 47.992188c7.738282 7.726562 21.222657 7.738281 28.964844 0l10.875-10.875c7.984375-7.984376 7.984375-20.980469 0-28.964844l-47.992187-47.996094c-3.996094-3.984375-9.238281-5.984375-14.484375-5.984375zm0 0" fill="#0e65e5"/><path d="m225.667969 218.453125c-1.746094 0-3.496094-.667969-4.828125-2-2.664063-2.664063-2.664063-6.988281 0-9.652344l23.894531-23.894531c2.664063-2.664062 6.984375-2.664062 9.652344 0 2.664062 2.667969 2.664062 6.988281 0 9.652344l-23.894531 23.894531c-1.332032 1.332031-3.078126 2-4.824219 2zm0 0" fill="#0e65e5"/><path d="m143.746094 61.441406h-54.613282v-54.613281h-27.304687v54.613281h-54.613281v27.304688h54.613281v54.613281h27.304687v-54.613281h54.613282zm0 0" fill="#2a8ee6"/><g fill="#0e65e5"><path d="m89.132812 150.1875h-27.304687c-3.773437 0-6.828125-3.054688-6.828125-6.828125v-47.785156h-47.785156c-3.773438 0-6.828125-3.054688-6.828125-6.828125v-27.304688c0-3.773437 3.054687-6.828125 6.828125-6.828125h47.785156v-47.785156c0-3.773437 3.054688-6.828125 6.828125-6.828125h27.304687c3.769532 0 6.828126 3.054688 6.828126 6.828125v47.785156h47.785156c3.769531 0 6.828125 3.054688 6.828125 6.828125v27.304688c0 3.773437-3.058594 6.828125-6.828125 6.828125h-47.785156v47.785156c0 3.773437-3.058594 6.828125-6.828126 6.828125zm-20.480468-13.652344h13.65625v-47.789062c0-3.773438 3.054687-6.824219 6.824218-6.824219h47.789063v-13.65625h-47.789063c-3.769531 0-6.824218-3.050781-6.824218-6.824219v-47.789062h-13.65625v47.789062c0 3.773438-3.054688 6.824219-6.824219 6.824219h-47.789063v13.65625h47.789063c3.769531 0 6.824219 3.050781 6.824219 6.824219zm0 0"/><path d="m143.746094 382.292969c0-7.539063-30.5625-13.652344-68.265625-13.652344s-68.265625 6.113281-68.265625 13.652344c0 7.539062 30.5625 13.652343 68.265625 13.652343s68.265625-6.113281 68.265625-13.652343zm0 0"/><path d="m75.480469 402.773438c-69.675781 0-75.09375-15.675782-75.09375-20.480469 0-4.804688 5.417969-20.480469 75.09375-20.480469s75.09375 15.675781 75.09375 20.480469c0 4.804687-5.417969 20.480469-75.09375 20.480469zm-58.011719-20.480469c8.339844 3.058593 28.253906 6.828125 58.011719 6.828125 29.753906 0 49.671875-3.769532 58.011719-6.828125-8.339844-3.058594-28.257813-6.828125-58.011719-6.828125-29.757813 0-49.671875 3.769531-58.011719 6.828125zm120.128906 2.140625h.066406zm0 0"/></g><path d="m300.761719 129.707031c-3.773438 0-6.828125-3.054687-6.828125-6.828125v-27.304687c0-3.773438 3.054687-6.828125 6.828125-6.828125 3.769531 0 6.824219 3.054687 6.824219 6.828125v27.304687c0 3.773438-3.054688 6.828125-6.824219 6.828125zm0 0" fill="#fff"/><path d="m314.414062 116.054688h-27.308593c-3.769531 0-6.824219-3.054688-6.824219-6.828126 0-3.773437 3.054688-6.828124 6.824219-6.828124h27.308593c3.769532 0 6.824219 3.054687 6.824219 6.828124 0 3.773438-3.054687 6.828126-6.824219 6.828126zm0 0" fill="#fff"/><path d="m143.757812 252.585938c-.324218 0-.648437-.019532-.976562-.066407-3.730469-.53125-6.324219-3.992187-5.792969-7.726562l6.828125-47.785157c.53125-3.738281 3.964844-6.3125 7.722656-5.792968 3.730469.53125 6.324219 3.992187 5.789063 7.722656l-6.824219 47.789062c-.488281 3.40625-3.40625 5.859376-6.746094 5.859376zm0 0" fill="#fff"/></svg>