<svg id="Layer_1" enable-background="new 0 0 256 256" height="512" viewBox="0 0 256 256" width="512" xmlns="http://www.w3.org/2000/svg"><g><g><path d="m137.83 158.261h-99.667c-8.837 0-16-7.163-16-16v-79.174h131.667v79.174c0 8.836-7.164 16-16 16z" fill="#4671c6"/></g><g><path d="m137.83 160.261h-99.667c-9.925 0-18-8.075-18-18v-79.174c0-1.104.896-2 2-2h131.667c1.104 0 2 .896 2 2v79.174c0 9.925-8.075 18-18 18zm-113.667-95.174v77.174c0 7.72 6.28 14 14 14h99.667c7.72 0 14-6.28 14-14v-77.174z" fill="#3762cc"/></g><g><path d="m132.496 165.757h-89c-15.464 0-28 12.536-28 28v38.042 7.267h145v-7.267-38.042c0-15.464-12.536-28-28-28z" fill="#6bdddd"/></g><g><path d="m51.802 165.757 31.905 31.172c2.387 2.332 6.201 2.331 8.586-.004l31.84-31.167h-72.331z" fill="#e0ebfc"/></g><g><path d="m15.496 215.644h19.986v5h-19.986z" fill="#e0ebfc"/></g><g><path d="m140.511 215.644h19.985v5h-19.985z" fill="#e0ebfc"/></g><g><path d="m15.496 226.144h19.986v12.923h-19.986z" fill="#f9cfcf"/></g><g><path d="m140.511 226.144h19.986v12.923h-19.986z" fill="#f9cfcf"/></g><g><path d="m120.132 201.945h-8.622c-1.017 0-1.842.825-1.842 1.842v15.907c0 .679.374 1.304.974 1.624l8.622 4.608c.271.145.57.217.868.217z" fill="#e0ebfc"/></g><g><path d="m121 225.926 8.622-4.608c.599-.32.974-.945.974-1.624v-15.907c0-1.017-.825-1.842-1.842-1.842h-8.622v24.199c.299 0 .597-.073.868-.218z" fill="#4671c6"/></g><g><path d="m140.511 241.066c-1.104 0-2-.896-2-2v-40.288c0-1.104.896-2 2-2s2 .896 2 2v40.288c0 1.105-.896 2-2 2z" fill="#3762cc"/></g><g><path d="m35.482 241.066c-1.104 0-2-.896-2-2v-40.288c0-1.104.896-2 2-2s2 .896 2 2v40.288c0 1.105-.895 2-2 2z" fill="#3762cc"/></g><g><path d="m35.482 228.144h-19.986c-1.104 0-2-.896-2-2s.896-2 2-2h19.986c1.104 0 2 .896 2 2s-.895 2-2 2z" fill="#3762cc"/></g><g><path d="m160.496 228.144h-19.985c-1.104 0-2-.896-2-2s.896-2 2-2h19.985c1.104 0 2 .896 2 2s-.895 2-2 2z" fill="#3762cc"/></g><g><path d="m87.996 160.261c-8.841 0-17.166-2.167-24.48-5.981v11.478l22.333 21.819c1.194 1.166 3.1 1.165 4.293-.002l22.288-21.817v-11.453c-7.303 3.798-15.612 5.956-24.434 5.956z" fill="#f9cfcf"/></g><g><path d="m160.496 241.066h-145c-1.104 0-2-.896-2-2v-45.31c0-16.542 13.458-30 30-30h18.021v-9.478c0-.699.365-1.348.963-1.71.6-.364 1.343-.387 1.962-.063 7.219 3.765 15.363 5.755 23.555 5.755 8.292 0 16.201-1.929 23.511-5.731.621-.321 1.363-.298 1.961.064.597.363.962 1.011.962 1.71v9.453h18.066c16.542 0 30 13.458 30 30v45.31c-.001 1.105-.896 2-2.001 2zm-143-4h141v-43.31c0-14.337-11.663-26-26-26h-20.066c-1.104 0-2-.896-2-2v-8.269c-7.017 3.13-14.707 4.772-22.434 4.772-7.743 0-15.45-1.65-22.479-4.793v8.289c0 1.104-.896 2-2 2h-20.021c-14.337 0-26 11.663-26 26z" fill="#3762cc"/></g><g><path d="m87.997 200.658c-2.06 0-4.119-.767-5.688-2.299l-31.905-31.172c-.582-.568-.762-1.433-.455-2.186.308-.753 1.039-1.245 1.853-1.245h11.715c.522 0 1.024.204 1.397.569l22.332 21.819c.412.403 1.083.402 1.497-.001l22.287-21.817c.374-.365.876-.57 1.399-.57h11.702c.813 0 1.545.492 1.852 1.244.308.753.128 1.616-.452 2.185l-31.839 31.168c-1.57 1.537-3.632 2.304-5.695 2.305zm-31.286-32.901 28.394 27.741c1.599 1.562 4.195 1.559 5.79-.003l28.335-27.738h-5.983l-21.705 21.247c-1.954 1.911-5.134 1.912-7.09.003l-21.749-21.25z" fill="#3762cc"/></g><g><path d="m140.683 88.203v-4.933c0-28.836-23.589-52.212-52.687-52.212-29.098 0-52.687 23.376-52.687 52.212v4.933c-9.149-.186-16.407 7.103-16.407 15.912 0 9.407 8.213 16.848 17.799 15.835 5.437 23.1 26.333 40.311 51.295 40.311 24.965 0 45.858-17.212 51.295-40.311 9.573 1.012 17.799-6.415 17.799-15.835 0-8.814-7.264-16.098-16.407-15.912z" fill="#f9cfcf"/></g><g><path d="m88.005 134.166c-3.36 0-6.49-1.212-8.587-3.325-1.598-1.611-2.478-3.646-2.478-5.728 0-1.104.896-2 2-2s2 .896 2 2c0 1.035.456 2.042 1.317 2.911 1.331 1.341 3.479 2.142 5.747 2.142 2.282 0 4.366-.78 5.717-2.143.862-.868 1.317-1.875 1.317-2.91 0-1.104.896-2 2-2s2 .896 2 2c0 2.083-.88 4.117-2.478 5.728-2.095 2.113-5.214 3.325-8.555 3.325z" fill="#3762cc"/></g><g><path d="m87.996 162.261c-24.979 0-46.467-16.454-52.831-40.221-.06 0-.117 0-.176 0-4.475.001-8.818-1.642-12.153-4.643-3.771-3.394-5.934-8.234-5.934-13.282 0-4.832 1.909-9.363 5.375-12.76 3.007-2.946 6.866-4.712 11.032-5.083v-3.002c0-29.893 24.532-54.212 54.687-54.212s54.688 24.319 54.688 54.212v3.003c4.166.37 8.024 2.137 11.032 5.083 3.466 3.397 5.375 7.929 5.375 12.76 0 5.048-2.162 9.888-5.932 13.28-3.336 3.001-7.682 4.645-12.156 4.645-.058 0-.116 0-.175-.001-6.364 23.767-27.851 40.221-52.832 40.221zm-51.293-44.311c.917 0 1.73.631 1.945 1.542 5.373 22.826 25.665 38.769 49.348 38.769s43.976-15.942 49.349-38.769c.231-.981 1.153-1.631 2.157-1.531 4.005.428 8.011-.865 10.981-3.539 2.928-2.635 4.607-6.392 4.607-10.307 0-3.748-1.482-7.265-4.175-9.902-2.719-2.664-6.35-4.115-10.191-4.01-.544.002-1.058-.195-1.44-.571-.384-.376-.601-.892-.601-1.429v-4.933c0-27.687-22.738-50.212-50.688-50.212-27.948 0-50.687 22.525-50.687 50.212v4.934c0 .537-.217 1.053-.601 1.429s-.916.577-1.44.571c-3.811-.068-7.473 1.346-10.191 4.009-2.692 2.639-4.175 6.155-4.175 9.903 0 3.916 1.68 7.673 4.609 10.309 2.97 2.673 6.974 3.966 10.979 3.537.073-.008.144-.012.214-.012z" fill="#3762cc"/></g><g><circle cx="195.504" cy="201.333" fill="#e0ebfc" r="45"/></g><g><path d="m195.504 185.749c-1.104 0-2-.896-2-2v-14.25c0-1.104.896-2 2-2s2 .896 2 2v14.25c0 1.105-.896 2-2 2z" fill="#3762cc"/></g><g><path d="m177.671 198.706c-.204 0-.413-.032-.618-.099l-14.266-4.636c-1.051-.342-1.625-1.47-1.284-2.521.341-1.049 1.469-1.623 2.521-1.284l14.266 4.636c1.051.342 1.625 1.47 1.284 2.521-.275.845-1.059 1.383-1.903 1.383z" fill="#3762cc"/></g><g><path d="m176.008 231.472c-.403 0-.812-.122-1.164-.375-.897-.645-1.103-1.894-.459-2.791l8.473-11.804c.644-.896 1.894-1.103 2.791-.459.897.645 1.103 1.894.459 2.791l-8.473 11.804c-.391.544-1.004.834-1.627.834z" fill="#3762cc"/></g><g><path d="m213.339 198.705c-.844 0-1.627-.538-1.902-1.383-.341-1.051.233-2.179 1.284-2.521l14.266-4.636c1.053-.341 2.179.235 2.521 1.284.341 1.051-.233 2.179-1.284 2.521l-14.266 4.636c-.206.067-.415.099-.619.099z" fill="#3762cc"/></g><g><path d="m215.014 231.487c-.623 0-1.236-.289-1.627-.834l-8.484-11.82c-.644-.897-.438-2.146.459-2.791.896-.645 2.147-.439 2.791.459l8.484 11.82c.644.897.438 2.146-.459 2.791-.353.253-.761.375-1.164.375z" fill="#3762cc"/></g><g><path d="m180.779 158.801 14.725 10.698 14.725-10.698c-4.614-1.597-9.568-2.467-14.725-2.467s-10.111.869-14.725 2.467z" fill="#4671c6"/></g><g><path d="m175.999 229.488-16.041-.56c5.14 6.611 12.082 11.752 20.09 14.681z" fill="#4671c6"/></g><g><path d="m210.962 243.608c8.007-2.929 14.948-8.069 20.088-14.68l-16.039.56z" fill="#4671c6"/></g><g><path d="m227.605 192.069 12.897 9.371c.001 0 .001 0 .001-.001.021-9.381-2.828-18.095-7.718-25.313z" fill="#4671c6"/></g><g><path d="m195.504 183.749-17.833 12.956 6.812 20.963h22.041l6.812-20.963z" fill="#4671c6"/></g><g><path d="m180.048 245.608c-.23 0-.463-.04-.687-.122-8.285-3.029-15.541-8.331-20.983-15.331-.477-.613-.555-1.446-.202-2.138.354-.692 1.039-1.126 1.852-1.089l16.041.561c.865.03 1.613.615 1.853 1.447l4.05 14.12c.207.724-.009 1.503-.56 2.016-.378.351-.867.536-1.364.536zm-15.588-14.522c3.599 3.759 7.835 6.826 12.515 9.063l-2.498-8.712z" fill="#3762cc"/></g><g><path d="m210.963 245.607c-.497 0-.986-.186-1.363-.536-.551-.513-.767-1.292-.56-2.015l4.049-14.12c.239-.833.987-1.418 1.853-1.448l16.038-.561c.779-.039 1.498.396 1.852 1.089.353.691.274 1.524-.202 2.138-5.44 7-12.695 12.302-20.979 15.331-.225.082-.458.122-.688.122zm5.571-14.171-2.498 8.712c4.679-2.236 8.913-5.305 12.512-9.063z" fill="#3762cc"/></g><g><path d="m240.467 203.424c-.403 0-.803-.121-1.141-.366l-12.897-9.371c-.701-.51-.994-1.412-.727-2.236l5.181-15.943c.236-.727.865-1.255 1.622-1.362.759-.1 1.508.227 1.937.858 5.274 7.787 8.063 16.892 8.063 26.33 0 .019-.001.091-.002.109-.021.741-.45 1.438-1.116 1.766-.292.142-.608.215-.92.215zm-10.511-12.119 8.369 6.081c-.528-5.8-2.219-11.396-4.984-16.5z" fill="#3762cc"/></g><g><path d="m195.504 171.499c-.412 0-.825-.127-1.176-.382l-14.726-10.698c-.603-.438-.912-1.175-.803-1.912s.62-1.353 1.324-1.596c9.881-3.422 20.878-3.422 30.759 0 .704.243 1.215.858 1.324 1.596s-.2 1.474-.803 1.912l-14.725 10.698c-.349.255-.762.382-1.174.382zm-10.267-11.931 10.267 7.459 10.266-7.459c-6.69-1.642-13.843-1.642-20.533 0z" fill="#3762cc"/></g><g><path d="m206.524 219.668h-22.042c-.866 0-1.635-.558-1.902-1.382l-6.812-20.963c-.268-.824.025-1.727.727-2.236l17.833-12.956c.701-.51 1.65-.51 2.352 0l17.832 12.956c.701.51.994 1.412.727 2.236l-6.812 20.963c-.268.824-1.036 1.382-1.903 1.382zm-20.588-4h19.136l5.913-18.199-15.48-11.248-15.481 11.248z" fill="#3762cc"/></g><g><path d="m195.504 248.333c-25.916 0-47-21.084-47-47s21.084-47 47-47 47 21.084 47 47-21.084 47-47 47zm0-90c-23.71 0-43 19.29-43 43s19.29 43 43 43 43-19.29 43-43-19.29-43-43-43z" fill="#3762cc"/></g><g><path d="m150.505 201.374 12.808-9.305-5.151-15.853c-4.835 7.174-7.658 15.816-7.658 25.117 0 .014.001.028.001.041z" fill="#4671c6"/></g><g><path d="m150.505 203.374c-.311 0-.621-.072-.908-.218-.67-.342-1.092-1.03-1.092-1.782h.001c.008-9.473 2.773-18.525 7.997-26.275.428-.633 1.171-.975 1.937-.862.757.106 1.388.635 1.624 1.362l5.151 15.853c.268.824-.025 1.727-.727 2.236l-12.808 9.305c-.348.252-.76.381-1.175.381zm7.105-22.382c-2.721 5.055-4.39 10.588-4.921 16.323l8.271-6.01z" fill="#3762cc"/></g><g><path d="m124.271 95.667h-3.606c-1.345-1.39-3.227-2.258-5.315-2.258-4.086 0-7.399 3.313-7.399 7.399v7.893c0 4.086 3.313 7.399 7.399 7.399 4.086 0 7.399-3.313 7.399-7.399v-7.893c0-.389-.039-.768-.097-1.141h1.619c1.104 0 2-.896 2-2s-.896-2-2-2z" fill="#3762cc"/></g><g><path d="m60.63 93.409c-2.088 0-3.97.868-5.315 2.258h-3.605c-1.104 0-2 .896-2 2s.896 2 2 2h1.618c-.058.373-.097.752-.097 1.141v7.893c0 4.086 3.313 7.399 7.399 7.399 4.086 0 7.399-3.313 7.399-7.399v-7.893c0-4.087-3.312-7.399-7.399-7.399z" fill="#3762cc"/></g><g><path d="m27.07 86.203h-7.853v-21.536c0-30.376 24.624-55 55-55h4.417v24.972c0 28.478-23.086 51.564-51.564 51.564z" fill="#4671c6"/></g><g><path d="m27.07 88.203h-7.854c-1.104 0-2-.896-2-2v-21.536c0-31.43 25.57-57 57-57h4.417c1.104 0 2 .896 2 2v24.972c.001 29.535-24.028 53.564-53.563 53.564zm-5.853-4h5.854c27.329 0 49.563-22.234 49.563-49.564v-22.972h-2.417c-29.225 0-53 23.775-53 53z" fill="#3762cc"/></g><g><path d="m156.717 86.203h-43.812c-21.367 0-38.688-17.321-38.688-38.688v-37.848h27.5c30.376 0 55 24.624 55 55z" fill="#4671c6"/></g><g><path d="m156.717 88.203h-43.812c-22.436 0-40.688-18.253-40.688-40.688v-37.848c0-1.104.896-2 2-2h27.5c31.43 0 57 25.57 57 57v21.536c0 1.105-.896 2-2 2zm-80.5-76.536v35.848c0 20.23 16.458 36.688 36.688 36.688h41.812v-19.536c0-29.225-23.775-53-53-53z" fill="#3762cc"/></g></g></svg>